# xmcd CD database file generated by OrangeCD 6.5
#
# Track frame offsets:
#	150
#	19911
#	38788
#	50667
#	65751
#	83074
#	100754
#	123873
#	140303
#	153402
#
# Disc length: 2253 seconds
#
# Revision: 2
# Processed by: cddbd v1.5.2PL0 Copyright (c) Steve Scherf et al.
# Submitted via: OrangeCD 6.5
#
DISCID=7f08cb0a
DTITLE=Grant-Lee Phillips - Walking In The Green Corn
DYEAR=2012
DGENRE=Acoustic
TTITLE0=Vanishing Song
TTITLE1=Great Horned Owl
TTITLE2=Buffalo Hearts
TTITLE3=The Straighten Outer
TTITLE4=Fools Gold
TTITLE5=Silent Arrow
TTITLE6=Bound To This World
TTITLE7=Thunderbird
TTITLE8=Black Horses In A Yellow Sky
TTITLE9=Walking In The Green Corn
EXTD=
EXTT0=
EXTT1=
EXTT2=
EXTT3=
EXTT4=
EXTT5=
EXTT6=
EXTT7=
EXTT8=
EXTT9=
PLAYORDER=
